<?xml version="1.0" encoding="UTF-8"?>
<svg id="Layer_1" data-name="Layer 1" xmlns="http://www.w3.org/2000/svg" viewBox="0 0 1080.55 439.42">
  <g>
    <g>
      <polygon points="82.06 91.42 82.06 197.65 94.94 197.65 94.94 149.84 142.9 149.84 142.9 137.77 94.94 137.77 94.94 103.49 156.42 103.49 156.42 91.42 82.06 91.42"/>
      <path d="M264.13,156.12h38.79l-19.48-52.31-19.31,52.31ZM332.53,197.65h-13.68l-11.27-29.45h-48.12l-11.27,29.45h-13.52l41.36-106.23h15.29l41.2,106.23Z"/>
      <path d="M372.97,156.12h38.79l-19.48-52.31-19.31,52.31ZM441.37,197.65h-13.68l-11.27-29.45h-48.12l-11.27,29.45h-13.52l41.36-106.23h15.29l41.2,106.23Z"/>
      <path d="M490.26,185.58c12.12,0,21.59-3.62,28.41-10.86,6.81-7.24,10.22-17.3,10.22-30.18s-3.41-22.94-10.22-30.18c-6.82-7.24-16.28-10.86-28.41-10.86h-22.69v82.09h22.69ZM488.97,91.42c16.63,0,29.69,4.59,39.19,13.76,9.5,9.17,14.24,22.29,14.24,39.35s-4.75,30.18-14.24,39.35c-9.5,9.17-22.56,13.76-39.19,13.76h-34.28v-106.23h34.28Z"/>
      <path d="M188.67,117v9.86h-24.16v10.28h24.66v-9.86h22.05c-.57,7.85-1.26,17.51-1.26,18.38v3.08l-29.29,5.77c-7.19,1.4-12.79,4.05-16.82,7.97-4.02,3.92-6.04,8.88-6.04,14.89,0,4.83,1.21,8.88,3.62,12.15,2.42,3.27,5.66,5.71,9.74,7.32,4.08,1.61,8.47,2.42,13.2,2.42,3.75,0,7.56-.62,11.43-1.85,3.86-1.23,7.35-3.16,10.46-5.79,1.5-1.26,3.85-4.34,3.85-4.34,0,0,.21-.02.58-.07l1.27,10.25h10.09l.13-80.46h-33.52ZM209.96,167.87c0,3.44-.64,6.41-1.93,8.93-1.29,2.52-3.06,4.62-5.31,6.28-2.25,1.67-4.8,2.9-7.65,3.7-2.84.8-5.82,1.21-8.93,1.21-4.83,0-8.56-1.04-11.19-3.14-2.63-2.09-3.94-4.8-3.94-8.13s1.29-6.12,3.86-8.05c2.57-1.93,6.49-3.43,11.75-4.51l23.34-4.78v8.48Z"/>
    </g>
    <g>
      <path d="M640.61,115.83h-21.09v39.66c0,10.37-3.3,26.9-18.56,26.9-13.53,0-13.69-13.38-13.69-23.29v-43.27h-21.07v51.13c0,18.26,8.33,31.8,27.53,31.8,11.01,0,20.14-5.04,26.58-12.91h.32v11.01h19.98v-81.04Z"/>
      <path d="M670.37,156.11c0-10.85,3.77-25.8,17.45-25.8s18.89,14.48,18.89,25.8-4.57,26.28-18.57,26.28-17.77-15.11-17.77-26.28M707.49,196.87h20.46l-.07-114.79h-21.09l.07,43.2h-.31c-6.3-7.7-13.69-11.32-24.23-11.32-24.86,0-33.98,19.82-33.98,42.16s9.13,42.65,33.98,42.65c9.91,0,18.57-3.15,24.85-11.03h.31v9.13Z"/>
      <path d="M737.73,229.9h21.07v-42.32h.32c7.4,8.97,14.79,11.18,23.76,11.18,25.33,0,34.45-20.46,34.45-42.65s-9.12-42.16-33.98-42.16c-12.43,0-20.45,5.51-25.17,13.37h-.31v-11.49h-20.14v114.07ZM777.84,130.31c13.7,0,17.46,14.95,17.46,25.8s-3.93,26.28-17.76,26.28-18.58-14.79-18.58-26.28,5.35-25.8,18.88-25.8"/>
    </g>
  </g>
  <g>
    <path d="M174.29,353.73h-13.69l-11.27-29.46h-48.14l-11.27,29.46h-13.52l41.38-106.26h15.29l41.22,106.26ZM105.87,312.19h38.8l-19.48-52.32-19.32,52.32Z"/>
    <path d="M188.46,353.73v-80.5h10.47l1.77,13.2c2.25-4.94,5.55-8.64,9.9-11.11,4.35-2.47,9.63-3.7,15.86-3.7,1.39,0,2.92.11,4.59.32,1.66.22,3.08.64,4.27,1.29l-2.25,11.75c-1.18-.43-2.47-.75-3.86-.96-1.4-.21-3.38-.32-5.96-.32-3.33,0-6.68.97-10.06,2.9-3.38,1.93-6.2,4.86-8.45,8.77-2.25,3.92-3.38,8.88-3.38,14.89v43.47h-12.88Z"/>
    <path d="M304.7,387.54v-55.87l2.25,1.61c-.75,4.72-2.55,8.72-5.39,11.99-2.84,3.28-6.33,5.77-10.46,7.49-4.13,1.72-8.51,2.58-13.12,2.58-6.66,0-12.77-1.66-18.35-4.99-5.58-3.33-10.04-8.13-13.36-14.41-3.33-6.28-4.99-13.77-4.99-22.46s1.77-16.47,5.31-22.7c3.54-6.22,8.21-10.97,14.01-14.25,5.8-3.27,12.02-4.91,18.68-4.91,4.51,0,8.69.83,12.56,2.5,3.86,1.67,7.17,4.03,9.9,7.08,2.74,3.06,4.53,6.68,5.39,10.87h-1.93l1.13-18.84h11.27v114.31h-12.88ZM279.26,344.07c5.04,0,9.47-1.26,13.28-3.78,3.81-2.52,6.79-6.12,8.94-10.79,2.15-4.67,3.22-10.17,3.22-16.5s-1.05-11.88-3.14-16.34c-2.09-4.45-5.02-7.86-8.77-10.22-3.76-2.36-8.16-3.54-13.2-3.54-7.94,0-14.17,2.79-18.68,8.37-4.51,5.58-6.76,12.99-6.76,22.22s2.2,16.64,6.6,22.22c4.4,5.58,10.57,8.37,18.52,8.37Z"/>
    <path d="M371.67,355.34c-5.15,0-10.01-.97-14.57-2.9-4.56-1.93-8.27-5.07-11.11-9.42-2.85-4.35-4.27-10.01-4.27-16.99v-52.81h12.88v49.43c0,8.16,1.77,13.77,5.31,16.83,3.54,3.06,8.53,4.59,14.97,4.59,3,0,5.96-.51,8.86-1.53,2.9-1.02,5.5-2.63,7.81-4.83,2.31-2.2,4.13-5.02,5.47-8.45,1.34-3.43,2.01-7.51,2.01-12.24v-43.79h12.88v80.5h-11.27l-.8-12.24c-2.79,4.83-6.58,8.35-11.35,10.54-4.78,2.2-10.38,3.3-16.82,3.3Z"/>
    <path d="M443.32,257.77c-2.9,0-5.23-.88-7-2.66s-2.66-4.11-2.66-7,.89-5.23,2.66-7c1.77-1.77,4.11-2.66,7-2.66s5.23.89,7,2.66c1.77,1.77,2.66,4.11,2.66,7s-.89,5.23-2.66,7c-1.77,1.77-4.11,2.66-7,2.66ZM449.76,273.23v80.5h-12.88v-80.5h12.88Z"/>
    <path d="M523.01,273.23v11.11h-58.28v-11.11h58.28ZM493.71,250.36v81.14c0,3.97,1.13,6.92,3.38,8.86,2.25,1.93,5.15,2.9,8.69,2.9,3.11,0,5.8-.54,8.05-1.61,2.25-1.07,4.29-2.52,6.12-4.35l4.51,10.79c-2.47,2.25-5.39,4.02-8.77,5.31-3.38,1.29-7.27,1.93-11.67,1.93-4.08,0-7.89-.72-11.43-2.17s-6.36-3.76-8.45-6.92-3.2-7.33-3.3-12.48v-79.86l12.88-3.54Z"/>
    <path d="M570.83,355.34c-7.62,0-14.41-1.66-20.37-4.99-5.96-3.33-10.6-8.13-13.93-14.41-3.33-6.28-4.99-13.77-4.99-22.46s1.66-16.18,4.99-22.46c3.33-6.28,7.89-11.08,13.68-14.41,5.8-3.33,12.4-4.99,19.8-4.99s13.93,1.61,19.24,4.83c5.31,3.22,9.36,7.59,12.16,13.12,2.79,5.53,4.19,11.73,4.19,18.59,0,1.83-.06,3.49-.16,4.99-.11,1.5-.27,2.85-.48,4.03h-65.04v-11.43h59.41l-6.6,1.29c0-7.73-2.12-13.68-6.36-17.87-4.24-4.19-9.8-6.28-16.66-6.28-5.26,0-9.8,1.21-13.6,3.62-3.81,2.42-6.76,5.9-8.86,10.46-2.09,4.56-3.14,10.06-3.14,16.5s1.07,11.81,3.22,16.42c2.15,4.62,5.18,8.13,9.1,10.54,3.92,2.42,8.61,3.62,14.09,3.62,5.9,0,10.71-1.13,14.41-3.38,3.7-2.25,6.68-5.31,8.93-9.18l10.14,5.96c-2.04,3.65-4.64,6.82-7.81,9.5-3.17,2.68-6.87,4.75-11.11,6.2-4.24,1.45-8.99,2.17-14.25,2.17Z"/>
    <path d="M658.41,271.62c5.58,0,10.49.86,14.73,2.58,4.24,1.72,7.91,4.19,11.03,7.41,3.11,3.22,5.64,7.03,7.57,11.43l-12.24,5.8c-1.72-5.15-4.32-9.1-7.81-11.83-3.49-2.74-8.02-4.11-13.6-4.11s-9.98,1.21-13.85,3.62-6.82,5.9-8.85,10.46c-2.04,4.56-3.06,10.06-3.06,16.5s1.02,11.81,3.06,16.42c2.04,4.62,4.99,8.13,8.85,10.54,3.86,2.42,8.48,3.62,13.85,3.62,4.19,0,7.81-.64,10.87-1.93,3.06-1.29,5.58-3.17,7.57-5.63,1.99-2.47,3.35-5.47,4.11-9.02l11.91,4.19c-1.83,4.94-4.32,9.18-7.49,12.72-3.17,3.54-6.98,6.25-11.43,8.13-4.46,1.88-9.53,2.82-15.21,2.82-7.51,0-14.22-1.66-20.12-4.99-5.9-3.33-10.52-8.13-13.85-14.41-3.33-6.28-4.99-13.77-4.99-22.46s1.66-16.18,4.99-22.46c3.33-6.28,7.94-11.08,13.85-14.41,5.9-3.33,12.61-4.99,20.12-4.99Z"/>
    <path d="M758.55,273.23v11.11h-58.28v-11.11h58.28ZM729.25,250.36v81.14c0,3.97,1.13,6.92,3.38,8.86,2.25,1.93,5.15,2.9,8.69,2.9,3.11,0,5.8-.54,8.05-1.61,2.25-1.07,4.29-2.52,6.12-4.35l4.51,10.79c-2.47,2.25-5.39,4.02-8.77,5.31-3.38,1.29-7.27,1.93-11.67,1.93-4.08,0-7.89-.72-11.43-2.17s-6.36-3.76-8.45-6.92-3.2-7.33-3.3-12.48v-79.86l12.88-3.54Z"/>
    <path d="M801.86,355.34c-5.15,0-10.01-.97-14.57-2.9-4.56-1.93-8.27-5.07-11.11-9.42-2.85-4.35-4.27-10.01-4.27-16.99v-52.81h12.88v49.43c0,8.16,1.77,13.77,5.31,16.83,3.54,3.06,8.53,4.59,14.97,4.59,3,0,5.96-.51,8.86-1.53,2.9-1.02,5.5-2.63,7.81-4.83,2.31-2.2,4.13-5.02,5.47-8.45,1.34-3.43,2.01-7.51,2.01-12.24v-43.79h12.88v80.5h-11.27l-.8-12.24c-2.79,4.83-6.58,8.35-11.35,10.54-4.78,2.2-10.38,3.3-16.82,3.3Z"/>
    <path d="M867.06,353.73v-80.5h10.47l1.77,13.2c2.25-4.94,5.55-8.64,9.9-11.11,4.35-2.47,9.63-3.7,15.86-3.7,1.39,0,2.92.11,4.59.32,1.66.22,3.08.64,4.27,1.29l-2.25,11.75c-1.18-.43-2.47-.75-3.86-.96-1.4-.21-3.38-.32-5.96-.32-3.33,0-6.68.97-10.06,2.9-3.38,1.93-6.2,4.86-8.45,8.77-2.25,3.92-3.38,8.88-3.38,14.89v43.47h-12.88Z"/>
    <path d="M972.52,301.72c0-6.01-1.61-10.65-4.83-13.93-3.22-3.27-7.78-4.91-13.69-4.91-5.58,0-10.3,1.21-14.17,3.62-3.86,2.42-6.71,6.31-8.53,11.67l-10.46-6.44c2.15-6.01,6.12-10.87,11.91-14.57,5.8-3.7,12.99-5.55,21.57-5.55,5.8,0,11.05.99,15.78,2.98,4.72,1.99,8.45,4.99,11.19,9.02,2.74,4.03,4.11,9.21,4.11,15.54v38.96c0,3.86,2.04,5.79,6.12,5.79,2.04,0,4.02-.27,5.96-.8l-.64,10.14c-2.15,1.07-4.94,1.61-8.37,1.61-3.11,0-5.9-.59-8.37-1.77-2.47-1.18-4.4-2.98-5.8-5.39-1.4-2.42-2.09-5.45-2.09-9.1v-1.61l3.22.48c-1.29,4.19-3.49,7.6-6.6,10.22-3.11,2.63-6.6,4.56-10.46,5.79-3.86,1.23-7.68,1.85-11.43,1.85-4.72,0-9.12-.8-13.2-2.41-4.08-1.61-7.33-4.05-9.74-7.33-2.42-3.27-3.62-7.33-3.62-12.16,0-6.01,2.01-10.97,6.04-14.89,4.03-3.92,9.63-6.57,16.82-7.97l31.88-6.28v10.63l-25.92,5.31c-5.26,1.07-9.18,2.58-11.75,4.51s-3.86,4.62-3.86,8.05,1.31,6.04,3.94,8.13c2.63,2.09,6.36,3.14,11.19,3.14,3.11,0,6.09-.4,8.94-1.21,2.84-.81,5.39-2.04,7.65-3.7s4.02-3.76,5.31-6.28c1.29-2.52,1.93-5.5,1.93-8.94v-22.22Z"/>
  </g>
</svg>