<?xml version="1.0" encoding="UTF-8"?>
<svg id="Layer_1" data-name="Layer 1" xmlns="http://www.w3.org/2000/svg" viewBox="0 0 2006.49 620.82">
  <g>
    <g>
      <polygon points="82.24 90.52 82.24 196.75 95.12 196.75 95.12 148.94 143.08 148.94 143.08 136.87 95.12 136.87 95.12 102.59 156.6 102.59 156.6 90.52 82.24 90.52"/>
      <path d="M264.3,155.22h38.79l-19.48-52.31-19.31,52.31ZM332.71,196.75h-13.68l-11.27-29.45h-48.12l-11.27,29.45h-13.52l41.36-106.23h15.29l41.2,106.23Z"/>
      <path d="M373.14,155.22h38.79l-19.48-52.31-19.31,52.31ZM441.55,196.75h-13.68l-11.27-29.45h-48.12l-11.27,29.45h-13.52l41.36-106.23h15.29l41.2,106.23Z"/>
      <path d="M490.44,184.68c12.12,0,21.59-3.62,28.41-10.86,6.81-7.24,10.22-17.3,10.22-30.18s-3.41-22.94-10.22-30.18c-6.82-7.24-16.28-10.86-28.41-10.86h-22.69v82.09h22.69ZM489.15,90.52c16.63,0,29.69,4.59,39.19,13.76,9.5,9.17,14.24,22.29,14.24,39.35s-4.75,30.18-14.24,39.35c-9.5,9.17-22.56,13.76-39.19,13.76h-34.28v-106.23h34.28Z"/>
      <path d="M188.85,116.1v9.86h-24.16v10.28h24.66v-9.86h22.05c-.57,7.85-1.26,17.51-1.26,18.38v3.08l-29.29,5.77c-7.19,1.4-12.79,4.05-16.82,7.97-4.02,3.92-6.04,8.88-6.04,14.89,0,4.83,1.21,8.88,3.62,12.15,2.42,3.27,5.66,5.71,9.74,7.32,4.08,1.61,8.47,2.42,13.2,2.42,3.75,0,7.56-.62,11.43-1.85,3.86-1.23,7.35-3.16,10.46-5.79,1.5-1.26,3.85-4.34,3.85-4.34,0,0,.21-.02.58-.07l1.27,10.25h10.09l.13-80.46h-33.52ZM210.14,166.97c0,3.44-.64,6.41-1.93,8.93-1.29,2.52-3.06,4.62-5.31,6.28-2.25,1.67-4.8,2.9-7.65,3.7-2.84.8-5.82,1.21-8.93,1.21-4.83,0-8.56-1.04-11.19-3.14-2.63-2.09-3.94-4.8-3.94-8.13s1.29-6.12,3.86-8.05c2.57-1.93,6.49-3.43,11.75-4.51l23.34-4.78v8.48Z"/>
    </g>
    <g>
      <path d="M640.79,114.93h-21.09v39.66c0,10.37-3.3,26.9-18.56,26.9-13.53,0-13.69-13.38-13.69-23.29v-43.27h-21.07v51.13c0,18.26,8.33,31.8,27.53,31.8,11.01,0,20.14-5.04,26.58-12.91h.32v11.01h19.98v-81.04Z"/>
      <path d="M670.55,155.21c0-10.85,3.77-25.8,17.45-25.8s18.89,14.48,18.89,25.8-4.57,26.28-18.57,26.28-17.77-15.11-17.77-26.28M707.67,195.97h20.46l-.07-114.79h-21.09l.07,43.2h-.31c-6.3-7.7-13.69-11.32-24.23-11.32-24.86,0-33.98,19.82-33.98,42.16s9.13,42.65,33.98,42.65c9.91,0,18.57-3.15,24.85-11.03h.31v9.13Z"/>
      <path d="M737.91,229h21.07v-42.32h.32c7.4,8.97,14.79,11.18,23.76,11.18,25.33,0,34.45-20.46,34.45-42.65s-9.12-42.16-33.98-42.16c-12.43,0-20.45,5.51-25.17,13.37h-.31v-11.49h-20.14v114.07ZM778.02,129.41c13.7,0,17.46,14.95,17.46,25.8s-3.93,26.28-17.76,26.28-18.58-14.79-18.58-26.28,5.35-25.8,18.88-25.8"/>
    </g>
  </g>
  <path d="M156.38,277.92h-61.5v34.29h47.98v12.08h-47.98v47.82h-12.88v-106.26h74.38v12.07Z"/>
  <path d="M211.6,320.11c0-6.01-1.61-10.65-4.83-13.93-3.22-3.27-7.78-4.91-13.69-4.91-5.58,0-10.3,1.21-14.17,3.62-3.86,2.42-6.71,6.31-8.53,11.67l-10.46-6.44c2.15-6.01,6.12-10.87,11.91-14.57s12.99-5.55,21.57-5.55c5.8,0,11.05.99,15.78,2.98,4.72,1.99,8.45,4.99,11.19,9.02,2.74,4.03,4.11,9.21,4.11,15.54v38.96c0,3.86,2.04,5.8,6.12,5.8,2.04,0,4.02-.27,5.96-.8l-.64,10.14c-2.15,1.07-4.94,1.61-8.37,1.61-3.11,0-5.9-.59-8.37-1.77-2.47-1.18-4.4-2.98-5.8-5.39-1.4-2.42-2.09-5.45-2.09-9.1v-1.61l3.22.48c-1.29,4.19-3.49,7.59-6.6,10.22-3.11,2.63-6.6,4.56-10.46,5.8-3.86,1.23-7.68,1.85-11.43,1.85-4.72,0-9.12-.81-13.2-2.42-4.08-1.61-7.33-4.05-9.74-7.33-2.42-3.27-3.62-7.33-3.62-12.16,0-6.01,2.01-10.97,6.04-14.89,4.03-3.92,9.63-6.57,16.82-7.97l31.88-6.28v10.63l-25.92,5.31c-5.26,1.07-9.18,2.58-11.75,4.51-2.58,1.93-3.86,4.62-3.86,8.05s1.31,6.04,3.94,8.13c2.63,2.09,6.36,3.14,11.19,3.14,3.11,0,6.09-.4,8.94-1.21,2.84-.81,5.39-2.04,7.65-3.7,2.25-1.66,4.02-3.76,5.31-6.28,1.29-2.52,1.93-5.5,1.93-8.94v-22.22Z"/>
  <path d="M284.05,290c5.58,0,10.49.86,14.73,2.58,4.24,1.72,7.91,4.19,11.03,7.41,3.11,3.22,5.64,7.03,7.57,11.43l-12.24,5.8c-1.72-5.15-4.32-9.1-7.81-11.83-3.49-2.74-8.02-4.11-13.6-4.11s-9.98,1.21-13.85,3.62-6.82,5.9-8.85,10.46c-2.04,4.56-3.06,10.06-3.06,16.5s1.02,11.81,3.06,16.42c2.04,4.62,4.99,8.13,8.85,10.55s8.48,3.62,13.85,3.62c4.19,0,7.81-.64,10.87-1.93,3.06-1.29,5.58-3.17,7.57-5.63,1.99-2.47,3.35-5.47,4.11-9.02l11.91,4.19c-1.83,4.94-4.32,9.18-7.49,12.72-3.17,3.54-6.98,6.25-11.43,8.13-4.46,1.88-9.53,2.82-15.21,2.82-7.51,0-14.22-1.66-20.12-4.99-5.9-3.33-10.52-8.13-13.85-14.41-3.33-6.28-4.99-13.77-4.99-22.46s1.66-16.18,4.99-22.46c3.33-6.28,7.94-11.08,13.85-14.41,5.9-3.33,12.61-4.99,20.12-4.99Z"/>
  <path d="M365.03,373.72c-5.15,0-10.01-.97-14.57-2.9-4.56-1.93-8.27-5.07-11.11-9.42-2.85-4.35-4.27-10.01-4.27-16.99v-52.81h12.88v49.43c0,8.16,1.77,13.77,5.31,16.83,3.54,3.06,8.53,4.59,14.97,4.59,3,0,5.96-.51,8.86-1.53,2.9-1.02,5.5-2.63,7.81-4.83,2.31-2.2,4.13-5.02,5.47-8.45,1.34-3.43,2.01-7.51,2.01-12.24v-43.79h12.88v80.5h-11.27l-.8-12.24c-2.79,4.83-6.58,8.35-11.35,10.55-4.78,2.2-10.38,3.3-16.82,3.3Z"/>
  <path d="M442.47,254.58v97.08c0,4.08.75,6.9,2.25,8.45,1.5,1.56,3.92,2.33,7.25,2.33,2.15,0,3.92-.16,5.31-.48,1.39-.32,3.27-.91,5.63-1.77l-2.09,11.27c-1.72.75-3.6,1.31-5.64,1.69-2.04.37-4.13.56-6.28.56-6.55,0-11.41-1.77-14.57-5.31-3.17-3.54-4.75-8.96-4.75-16.26v-97.57h12.88Z"/>
  <path d="M519.59,291.61v11.11h-58.28v-11.11h58.28ZM490.29,268.75v81.14c0,3.97,1.13,6.92,3.38,8.85,2.25,1.93,5.15,2.9,8.69,2.9,3.11,0,5.8-.54,8.05-1.61,2.25-1.07,4.29-2.52,6.12-4.35l4.51,10.79c-2.47,2.25-5.39,4.02-8.77,5.31s-7.27,1.93-11.67,1.93c-4.08,0-7.89-.72-11.43-2.17s-6.36-3.76-8.45-6.92c-2.09-3.17-3.2-7.33-3.3-12.48v-79.86l12.88-3.54Z"/>
  <path d="M580.77,320.11c0-6.01-1.61-10.65-4.83-13.93-3.22-3.27-7.78-4.91-13.69-4.91-5.58,0-10.3,1.21-14.17,3.62-3.86,2.42-6.71,6.31-8.53,11.67l-10.46-6.44c2.15-6.01,6.12-10.87,11.91-14.57s12.99-5.55,21.57-5.55c5.8,0,11.05.99,15.78,2.98,4.72,1.99,8.45,4.99,11.19,9.02,2.74,4.03,4.11,9.21,4.11,15.54v38.96c0,3.86,2.04,5.8,6.12,5.8,2.04,0,4.02-.27,5.96-.8l-.64,10.14c-2.15,1.07-4.94,1.61-8.37,1.61-3.11,0-5.9-.59-8.37-1.77-2.47-1.18-4.4-2.98-5.8-5.39-1.4-2.42-2.09-5.45-2.09-9.1v-1.61l3.22.48c-1.29,4.19-3.49,7.59-6.6,10.22-3.11,2.63-6.6,4.56-10.46,5.8-3.86,1.23-7.68,1.85-11.43,1.85-4.72,0-9.12-.81-13.2-2.42-4.08-1.61-7.33-4.05-9.74-7.33-2.42-3.27-3.62-7.33-3.62-12.16,0-6.01,2.01-10.97,6.04-14.89,4.03-3.92,9.63-6.57,16.82-7.97l31.88-6.28v10.63l-25.92,5.31c-5.26,1.07-9.18,2.58-11.75,4.51-2.58,1.93-3.86,4.62-3.86,8.05s1.31,6.04,3.94,8.13c2.63,2.09,6.36,3.14,11.19,3.14,3.11,0,6.09-.4,8.94-1.21,2.84-.81,5.39-2.04,7.65-3.7,2.25-1.66,4.02-3.76,5.31-6.28,1.29-2.52,1.93-5.5,1.93-8.94v-22.22Z"/>
  <path d="M651.29,373.72c-6.66,0-12.77-1.66-18.35-4.99-5.58-3.33-10.04-8.13-13.36-14.41-3.33-6.28-4.99-13.77-4.99-22.46s1.77-16.47,5.31-22.7c3.54-6.22,8.21-10.97,14.01-14.25,5.8-3.27,12.02-4.91,18.68-4.91s12.42,1.72,17.31,5.15c4.88,3.44,8.13,8,9.74,13.68l-1.61,1.13v-55.38h12.88v117.53h-11.27l-1.13-19.48,1.77-.97c-.75,4.72-2.55,8.72-5.39,12-2.84,3.28-6.33,5.77-10.46,7.49-4.13,1.72-8.51,2.58-13.12,2.58ZM652.58,362.45c5.15,0,9.63-1.29,13.44-3.86,3.81-2.58,6.76-6.25,8.85-11.03,2.09-4.77,3.14-10.38,3.14-16.82s-1.05-11.38-3.14-15.78c-2.09-4.4-4.99-7.78-8.69-10.14-3.7-2.36-8.03-3.54-12.96-3.54-8.16,0-14.49,2.79-19,8.37-4.51,5.58-6.76,12.99-6.76,22.22s2.2,16.64,6.6,22.22c4.4,5.58,10.57,8.37,18.52,8.37Z"/>
  <path d="M797.15,373.72c-6.66,0-12.77-1.66-18.35-4.99-5.58-3.33-10.04-8.13-13.36-14.41-3.33-6.28-4.99-13.77-4.99-22.46s1.77-16.47,5.31-22.7c3.54-6.22,8.21-10.97,14.01-14.25,5.8-3.27,12.02-4.91,18.68-4.91s12.42,1.72,17.31,5.15c4.88,3.44,8.13,8,9.74,13.68l-1.61,1.13v-55.38h12.88v117.53h-11.27l-1.13-19.48,1.77-.97c-.75,4.72-2.55,8.72-5.39,12-2.84,3.28-6.33,5.77-10.46,7.49-4.13,1.72-8.51,2.58-13.12,2.58ZM798.44,362.45c5.15,0,9.63-1.29,13.44-3.86,3.81-2.58,6.76-6.25,8.85-11.03,2.09-4.77,3.14-10.38,3.14-16.82s-1.05-11.38-3.14-15.78c-2.09-4.4-4.99-7.78-8.69-10.14-3.7-2.36-8.03-3.54-12.96-3.54-8.16,0-14.49,2.79-19,8.37-4.51,5.58-6.76,12.99-6.76,22.22s2.2,16.64,6.6,22.22c4.4,5.58,10.57,8.37,18.52,8.37Z"/>
  <path d="M895.36,373.72c-7.62,0-14.41-1.66-20.37-4.99-5.96-3.33-10.6-8.13-13.93-14.41-3.33-6.28-4.99-13.77-4.99-22.46s1.66-16.18,4.99-22.46c3.33-6.28,7.89-11.08,13.68-14.41,5.8-3.33,12.4-4.99,19.8-4.99s13.93,1.61,19.24,4.83c5.31,3.22,9.36,7.59,12.16,13.12,2.79,5.53,4.19,11.73,4.19,18.6,0,1.83-.06,3.49-.16,4.99-.11,1.5-.27,2.85-.48,4.03h-65.04v-11.43h59.41l-6.6,1.29c0-7.73-2.12-13.68-6.36-17.87-4.24-4.19-9.8-6.28-16.66-6.28-5.26,0-9.8,1.21-13.6,3.62-3.81,2.42-6.76,5.9-8.86,10.46-2.09,4.56-3.14,10.06-3.14,16.5s1.07,11.81,3.22,16.42c2.15,4.62,5.18,8.13,9.1,10.55,3.92,2.42,8.61,3.62,14.09,3.62,5.9,0,10.71-1.13,14.41-3.38,3.7-2.25,6.68-5.31,8.93-9.18l10.14,5.96c-2.04,3.65-4.64,6.82-7.81,9.5-3.17,2.68-6.87,4.75-11.11,6.2-4.24,1.45-8.99,2.17-14.25,2.17Z"/>
  <path d="M1080.19,372.11h-13.69l-11.27-29.46h-48.14l-11.27,29.46h-13.52l41.38-106.26h15.29l41.22,106.26ZM1011.77,330.57h38.8l-19.48-52.33-19.32,52.33Z"/>
  <path d="M1094.36,372.11v-80.5h10.47l1.77,13.2c2.25-4.94,5.55-8.64,9.9-11.11,4.35-2.47,9.63-3.7,15.86-3.7,1.39,0,2.92.11,4.59.32,1.66.22,3.08.64,4.27,1.29l-2.25,11.75c-1.18-.43-2.47-.75-3.86-.97-1.4-.21-3.38-.32-5.96-.32-3.33,0-6.68.97-10.06,2.9-3.38,1.93-6.2,4.86-8.45,8.78-2.25,3.92-3.38,8.88-3.38,14.89v43.47h-12.88Z"/>
  <path d="M1210.6,405.92v-55.87l2.25,1.61c-.75,4.72-2.55,8.72-5.39,12-2.84,3.28-6.33,5.77-10.46,7.49-4.13,1.72-8.51,2.58-13.12,2.58-6.66,0-12.77-1.66-18.35-4.99-5.58-3.33-10.04-8.13-13.36-14.41-3.33-6.28-4.99-13.77-4.99-22.46s1.77-16.47,5.31-22.7c3.54-6.22,8.21-10.97,14.01-14.25,5.8-3.27,12.02-4.91,18.68-4.91,4.51,0,8.69.83,12.56,2.5,3.86,1.67,7.17,4.02,9.9,7.08,2.74,3.06,4.53,6.68,5.39,10.87h-1.93l1.13-18.84h11.27v114.31h-12.88ZM1185.16,362.45c5.04,0,9.47-1.26,13.28-3.78,3.81-2.52,6.79-6.12,8.94-10.79,2.15-4.67,3.22-10.17,3.22-16.5s-1.05-11.89-3.14-16.34c-2.09-4.45-5.02-7.86-8.77-10.22-3.76-2.36-8.16-3.54-13.2-3.54-7.94,0-14.17,2.79-18.68,8.37-4.51,5.58-6.76,12.99-6.76,22.22s2.2,16.64,6.6,22.22c4.4,5.58,10.57,8.37,18.52,8.37Z"/>
  <path d="M1277.57,373.72c-5.15,0-10.01-.97-14.57-2.9-4.56-1.93-8.27-5.07-11.11-9.42-2.85-4.35-4.27-10.01-4.27-16.99v-52.81h12.88v49.43c0,8.16,1.77,13.77,5.31,16.83,3.54,3.06,8.53,4.59,14.97,4.59,3,0,5.96-.51,8.86-1.53,2.9-1.02,5.5-2.63,7.81-4.83,2.31-2.2,4.13-5.02,5.47-8.45,1.34-3.43,2.01-7.51,2.01-12.24v-43.79h12.88v80.5h-11.27l-.8-12.24c-2.79,4.83-6.58,8.35-11.35,10.55-4.78,2.2-10.38,3.3-16.82,3.3Z"/>
  <path d="M1349.22,276.15c-2.9,0-5.23-.89-7-2.66-1.77-1.77-2.66-4.11-2.66-7s.89-5.23,2.66-7c1.77-1.77,4.11-2.66,7-2.66s5.23.89,7,2.66,2.66,4.11,2.66,7-.89,5.23-2.66,7-4.11,2.66-7,2.66ZM1355.66,291.61v80.5h-12.88v-80.5h12.88Z"/>
  <path d="M1428.91,291.61v11.11h-58.28v-11.11h58.28ZM1399.61,268.75v81.14c0,3.97,1.13,6.92,3.38,8.85,2.25,1.93,5.15,2.9,8.69,2.9,3.11,0,5.8-.54,8.05-1.61,2.25-1.07,4.29-2.52,6.12-4.35l4.51,10.79c-2.47,2.25-5.39,4.02-8.77,5.31s-7.27,1.93-11.67,1.93c-4.08,0-7.89-.72-11.43-2.17s-6.36-3.76-8.45-6.92c-2.09-3.17-3.2-7.33-3.3-12.48v-79.86l12.88-3.54Z"/>
  <path d="M1476.73,373.72c-7.62,0-14.41-1.66-20.37-4.99-5.96-3.33-10.6-8.13-13.93-14.41-3.33-6.28-4.99-13.77-4.99-22.46s1.66-16.18,4.99-22.46c3.33-6.28,7.89-11.08,13.68-14.41,5.8-3.33,12.4-4.99,19.8-4.99s13.93,1.61,19.24,4.83c5.31,3.22,9.36,7.59,12.16,13.12,2.79,5.53,4.19,11.73,4.19,18.6,0,1.83-.06,3.49-.16,4.99-.11,1.5-.27,2.85-.48,4.03h-65.04v-11.43h59.41l-6.6,1.29c0-7.73-2.12-13.68-6.36-17.87-4.24-4.19-9.8-6.28-16.66-6.28-5.26,0-9.8,1.21-13.6,3.62-3.81,2.42-6.76,5.9-8.86,10.46-2.09,4.56-3.14,10.06-3.14,16.5s1.07,11.81,3.22,16.42c2.15,4.62,5.18,8.13,9.1,10.55,3.92,2.42,8.61,3.62,14.09,3.62,5.9,0,10.71-1.13,14.41-3.38,3.7-2.25,6.68-5.31,8.93-9.18l10.14,5.96c-2.04,3.65-4.64,6.82-7.81,9.5-3.17,2.68-6.87,4.75-11.11,6.2-4.24,1.45-8.99,2.17-14.25,2.17Z"/>
  <path d="M1564.31,290c5.58,0,10.49.86,14.73,2.58,4.24,1.72,7.91,4.19,11.03,7.41,3.11,3.22,5.64,7.03,7.57,11.43l-12.24,5.8c-1.72-5.15-4.32-9.1-7.81-11.83-3.49-2.74-8.02-4.11-13.6-4.11s-9.98,1.21-13.85,3.62-6.82,5.9-8.85,10.46c-2.04,4.56-3.06,10.06-3.06,16.5s1.02,11.81,3.06,16.42c2.04,4.62,4.99,8.13,8.85,10.55s8.48,3.62,13.85,3.62c4.19,0,7.81-.64,10.87-1.93,3.06-1.29,5.58-3.17,7.57-5.63,1.99-2.47,3.35-5.47,4.11-9.02l11.91,4.19c-1.83,4.94-4.32,9.18-7.49,12.72-3.17,3.54-6.98,6.25-11.43,8.13-4.46,1.88-9.53,2.82-15.21,2.82-7.51,0-14.22-1.66-20.12-4.99-5.9-3.33-10.52-8.13-13.85-14.41-3.33-6.28-4.99-13.77-4.99-22.46s1.66-16.18,4.99-22.46c3.33-6.28,7.94-11.08,13.85-14.41,5.9-3.33,12.61-4.99,20.12-4.99Z"/>
  <path d="M1664.45,291.61v11.11h-58.28v-11.11h58.28ZM1635.15,268.75v81.14c0,3.97,1.13,6.92,3.38,8.85,2.25,1.93,5.15,2.9,8.69,2.9,3.11,0,5.8-.54,8.05-1.61,2.25-1.07,4.29-2.52,6.12-4.35l4.51,10.79c-2.47,2.25-5.39,4.02-8.77,5.31s-7.27,1.93-11.67,1.93c-4.08,0-7.89-.72-11.43-2.17s-6.36-3.76-8.45-6.92c-2.09-3.17-3.2-7.33-3.3-12.48v-79.86l12.88-3.54Z"/>
  <path d="M1707.76,373.72c-5.15,0-10.01-.97-14.57-2.9-4.56-1.93-8.27-5.07-11.11-9.42-2.85-4.35-4.27-10.01-4.27-16.99v-52.81h12.88v49.43c0,8.16,1.77,13.77,5.31,16.83,3.54,3.06,8.53,4.59,14.97,4.59,3,0,5.96-.51,8.86-1.53,2.9-1.02,5.5-2.63,7.81-4.83,2.31-2.2,4.13-5.02,5.47-8.45,1.34-3.43,2.01-7.51,2.01-12.24v-43.79h12.88v80.5h-11.27l-.8-12.24c-2.79,4.83-6.58,8.35-11.35,10.55-4.78,2.2-10.38,3.3-16.82,3.3Z"/>
  <path d="M1772.96,372.11v-80.5h10.47l1.77,13.2c2.25-4.94,5.55-8.64,9.9-11.11,4.35-2.47,9.63-3.7,15.86-3.7,1.39,0,2.92.11,4.59.32,1.66.22,3.08.64,4.27,1.29l-2.25,11.75c-1.18-.43-2.47-.75-3.86-.97-1.4-.21-3.38-.32-5.96-.32-3.33,0-6.68.97-10.06,2.9-3.38,1.93-6.2,4.86-8.45,8.78-2.25,3.92-3.38,8.88-3.38,14.89v43.47h-12.88Z"/>
  <path d="M1878.42,320.11c0-6.01-1.61-10.65-4.83-13.93-3.22-3.27-7.78-4.91-13.69-4.91-5.58,0-10.3,1.21-14.17,3.62-3.86,2.42-6.71,6.31-8.53,11.67l-10.46-6.44c2.15-6.01,6.12-10.87,11.91-14.57s12.99-5.55,21.57-5.55c5.8,0,11.05.99,15.78,2.98,4.72,1.99,8.45,4.99,11.19,9.02,2.74,4.03,4.11,9.21,4.11,15.54v38.96c0,3.86,2.04,5.8,6.12,5.8,2.04,0,4.02-.27,5.96-.8l-.64,10.14c-2.15,1.07-4.94,1.61-8.37,1.61-3.11,0-5.9-.59-8.37-1.77-2.47-1.18-4.4-2.98-5.8-5.39-1.4-2.42-2.09-5.45-2.09-9.1v-1.61l3.22.48c-1.29,4.19-3.49,7.59-6.6,10.22-3.11,2.63-6.6,4.56-10.46,5.8-3.86,1.23-7.68,1.85-11.43,1.85-4.72,0-9.12-.81-13.2-2.42-4.08-1.61-7.33-4.05-9.74-7.33-2.42-3.27-3.62-7.33-3.62-12.16,0-6.01,2.01-10.97,6.04-14.89,4.03-3.92,9.63-6.57,16.82-7.97l31.88-6.28v10.63l-25.92,5.31c-5.26,1.07-9.18,2.58-11.75,4.51-2.58,1.93-3.86,4.62-3.86,8.05s1.31,6.04,3.94,8.13c2.63,2.09,6.36,3.14,11.19,3.14,3.11,0,6.09-.4,8.94-1.21,2.84-.81,5.39-2.04,7.65-3.7,2.25-1.66,4.02-3.76,5.31-6.28,1.29-2.52,1.93-5.5,1.93-8.94v-22.22Z"/>
  <path d="M1923.98,352.79c2.58,0,4.75.67,6.52,2.01,1.77,1.34,3.14,3.17,4.11,5.47.97,2.31,1.45,5.02,1.45,8.13,0,3.54-.62,7.03-1.85,10.46-1.24,3.43-3.14,6.6-5.72,9.5-2.58,2.9-5.9,5.31-9.98,7.25l-6.76-6.28c2.9-.97,5.45-2.31,7.65-4.02,2.2-1.72,4-3.65,5.39-5.8,1.39-2.15,2.31-4.35,2.74-6.6l-.64-.32c-.43.32-.97.59-1.61.8-.64.21-1.61.32-2.9.32s-2.6-.38-3.94-1.13c-1.34-.75-2.5-1.85-3.46-3.3-.97-1.45-1.45-3.35-1.45-5.72,0-1.93.48-3.73,1.45-5.39.97-1.66,2.23-2.98,3.78-3.94,1.55-.97,3.3-1.45,5.23-1.45Z"/>
  <path d="M167.76,542.11h-13.69l-11.27-29.46h-48.14l-11.27,29.46h-13.52l41.38-106.26h15.29l41.22,106.26ZM99.34,500.57h38.8l-19.48-52.33-19.32,52.33Z"/>
  <path d="M181.93,542.11v-80.5h10.47l1.77,13.2c2.25-4.94,5.55-8.64,9.9-11.11,4.35-2.47,9.63-3.7,15.86-3.7,1.39,0,2.92.11,4.59.32,1.66.22,3.08.64,4.27,1.29l-2.25,11.75c-1.18-.43-2.47-.75-3.86-.97-1.4-.21-3.38-.32-5.96-.32-3.33,0-6.68.97-10.06,2.9-3.38,1.93-6.2,4.86-8.45,8.77-2.25,3.92-3.38,8.88-3.38,14.89v43.47h-12.88Z"/>
  <path d="M286.09,461.61v11.11h-58.28v-11.11h58.28ZM256.79,438.75v81.14c0,3.97,1.13,6.92,3.38,8.85,2.25,1.93,5.15,2.9,8.69,2.9,3.11,0,5.8-.54,8.05-1.61,2.25-1.07,4.29-2.52,6.12-4.35l4.51,10.79c-2.47,2.25-5.39,4.02-8.77,5.31s-7.27,1.93-11.67,1.93c-4.08,0-7.89-.72-11.43-2.17s-6.36-3.76-8.45-6.92c-2.09-3.17-3.2-7.33-3.3-12.48v-79.86l12.88-3.54Z"/>
  <path d="M333.91,543.72c-7.62,0-14.41-1.66-20.37-4.99-5.96-3.33-10.6-8.13-13.93-14.41-3.33-6.28-4.99-13.77-4.99-22.46s1.66-16.18,4.99-22.46c3.33-6.28,7.89-11.08,13.68-14.41,5.8-3.33,12.4-4.99,19.8-4.99s13.93,1.61,19.24,4.83c5.31,3.22,9.36,7.59,12.16,13.12,2.79,5.53,4.19,11.73,4.19,18.59,0,1.83-.06,3.49-.16,4.99-.11,1.5-.27,2.85-.48,4.03h-65.04v-11.43h59.41l-6.6,1.29c0-7.73-2.12-13.68-6.36-17.87-4.24-4.19-9.8-6.28-16.66-6.28-5.26,0-9.8,1.21-13.6,3.62-3.81,2.42-6.76,5.9-8.86,10.46-2.09,4.56-3.14,10.06-3.14,16.5s1.07,11.81,3.22,16.42c2.15,4.62,5.18,8.13,9.1,10.55,3.92,2.42,8.61,3.62,14.09,3.62,5.9,0,10.71-1.13,14.41-3.38,3.7-2.25,6.68-5.31,8.93-9.18l10.14,5.96c-2.04,3.65-4.64,6.82-7.81,9.5-3.17,2.68-6.87,4.75-11.11,6.2-4.24,1.45-8.99,2.17-14.25,2.17Z"/>
  <path d="M500.22,461.61l-37.83,94.02c-2.04,5.26-4.27,9.42-6.68,12.48-2.42,3.06-5.1,5.26-8.05,6.6-2.95,1.34-6.36,2.01-10.22,2.01-3.65,0-7-.51-10.06-1.53-3.06-1.02-5.77-2.39-8.13-4.11l3.54-11.27c2.15,1.93,4.43,3.35,6.84,4.27,2.42.91,4.8,1.37,7.16,1.37,2.79,0,5.42-.86,7.89-2.58,2.47-1.72,4.72-5.21,6.76-10.46l4.19-10.46-8.05-19.16-25.6-61.18h14.65l20.12,52.49,4.99,14.33,5.8-15.94,18.84-50.88h13.85Z"/>
  <path d="M594.72,435.85c16.64,0,29.71,4.59,39.2,13.77,9.5,9.18,14.25,22.3,14.25,39.36s-4.75,30.19-14.25,39.36-22.57,13.77-39.2,13.77h-34.29v-106.26h34.29ZM596.01,530.03c12.13,0,21.6-3.62,28.42-10.87,6.81-7.25,10.22-17.31,10.22-30.19s-3.41-22.94-10.22-30.19c-6.82-7.25-16.29-10.87-28.42-10.87h-22.7v82.11h22.7Z"/>
  <path d="M674.74,446.15c-2.9,0-5.23-.89-7-2.66-1.77-1.77-2.66-4.11-2.66-7s.89-5.23,2.66-7,4.11-2.66,7-2.66,5.23.89,7,2.66c1.77,1.77,2.66,4.11,2.66,7s-.89,5.23-2.66,7-4.11,2.66-7,2.66ZM681.18,461.61v80.5h-12.88v-80.5h12.88Z"/>
  <path d="M735.12,543.72c-7.84,0-15.05-1.66-21.65-4.99-6.6-3.33-11.67-8.05-15.21-14.17l10.95-7.89c2.36,4.94,5.82,8.8,10.38,11.59,4.56,2.79,10.06,4.19,16.5,4.19,5.69,0,10.14-1.1,13.36-3.3,3.22-2.2,4.83-5.07,4.83-8.61,0-2.25-.72-4.32-2.17-6.2-1.45-1.88-4.21-3.25-8.29-4.11l-19.32-4.03c-7.84-1.61-13.44-4.29-16.82-8.05-3.38-3.76-5.07-8.42-5.07-14.01,0-4.4,1.26-8.42,3.78-12.08,2.52-3.65,6.12-6.57,10.79-8.77,4.67-2.2,10.17-3.3,16.5-3.3,7.94,0,14.65,1.56,20.12,4.67,5.47,3.12,9.55,7.51,12.24,13.2l-10.79,7.08c-1.83-4.72-4.78-8.18-8.86-10.38-4.08-2.2-8.32-3.3-12.72-3.3-3.86,0-7.16.54-9.9,1.61-2.74,1.07-4.83,2.55-6.28,4.43-1.45,1.88-2.17,4-2.17,6.36s.8,4.54,2.42,6.52c1.61,1.99,4.61,3.41,9.02,4.27l20.12,4.19c7.51,1.5,12.77,3.97,15.78,7.41,3,3.44,4.51,7.62,4.51,12.56s-1.34,9.47-4.03,13.28c-2.68,3.81-6.44,6.74-11.27,8.77-4.83,2.04-10.41,3.06-16.74,3.06Z"/>
  <path d="M819.64,543.72c-7.62,0-14.41-1.66-20.37-4.99-5.96-3.33-10.6-8.13-13.93-14.41-3.33-6.28-4.99-13.77-4.99-22.46s1.66-16.18,4.99-22.46c3.33-6.28,7.89-11.08,13.68-14.41,5.8-3.33,12.4-4.99,19.8-4.99s13.93,1.61,19.24,4.83c5.31,3.22,9.36,7.59,12.16,13.12,2.79,5.53,4.19,11.73,4.19,18.59,0,1.83-.06,3.49-.16,4.99-.11,1.5-.27,2.85-.48,4.03h-65.04v-11.43h59.41l-6.6,1.29c0-7.73-2.12-13.68-6.36-17.87-4.24-4.19-9.8-6.28-16.66-6.28-5.26,0-9.8,1.21-13.6,3.62-3.81,2.42-6.76,5.9-8.86,10.46-2.09,4.56-3.14,10.06-3.14,16.5s1.07,11.81,3.22,16.42c2.15,4.62,5.18,8.13,9.1,10.55,3.92,2.42,8.61,3.62,14.09,3.62,5.9,0,10.71-1.13,14.41-3.38,3.7-2.25,6.68-5.31,8.93-9.18l10.14,5.96c-2.04,3.65-4.64,6.82-7.81,9.5-3.17,2.68-6.87,4.75-11.11,6.2-4.24,1.45-8.99,2.17-14.25,2.17Z"/>
  <path d="M873.89,542.11v-80.5h11.27l1.13,18.03-2.09-1.77c1.71-4.29,4.02-7.75,6.92-10.38,2.9-2.63,6.25-4.53,10.06-5.72,3.81-1.18,7.75-1.77,11.83-1.77,5.8,0,11.05,1.1,15.78,3.3,4.72,2.2,8.5,5.55,11.35,10.06,2.84,4.51,4.27,10.25,4.27,17.23v51.52h-12.88v-47.01c0-8.91-1.91-15.11-5.72-18.6-3.81-3.49-8.51-5.23-14.09-5.23-3.86,0-7.73.91-11.59,2.74-3.86,1.83-7.06,4.78-9.58,8.85-2.52,4.08-3.78,9.55-3.78,16.42v42.83h-12.88ZM939.1,426.67c-.32,4.72-1.21,8.69-2.66,11.91-1.45,3.22-3.44,5.64-5.96,7.25-2.52,1.61-5.66,2.42-9.42,2.42-3.01,0-5.55-.56-7.65-1.69-2.09-1.13-3.89-2.39-5.39-3.78-1.5-1.39-2.98-2.66-4.43-3.78s-3.03-1.69-4.75-1.69c-2.36,0-4.13.99-5.31,2.98-1.18,1.99-2.04,4.7-2.58,8.13h-10.14c.54-7.08,2.28-12.45,5.23-16.1,2.95-3.65,7.27-5.47,12.96-5.47,2.9,0,5.39.56,7.49,1.69,2.09,1.13,3.92,2.39,5.47,3.78,1.55,1.4,3.03,2.66,4.43,3.78,1.39,1.13,2.9,1.69,4.51,1.69,2.47,0,4.29-.99,5.47-2.98,1.18-1.98,2.04-4.69,2.58-8.13h10.14Z"/>
  <path d="M1001.89,460c7.62,0,14.35,1.67,20.21,4.99,5.85,3.33,10.44,8.13,13.77,14.41,3.33,6.28,4.99,13.77,4.99,22.46s-1.67,16.18-4.99,22.46c-3.33,6.28-7.92,11.08-13.77,14.41-5.85,3.33-12.59,4.99-20.21,4.99s-14.22-1.66-20.12-4.99c-5.9-3.33-10.52-8.13-13.85-14.41-3.33-6.28-4.99-13.77-4.99-22.46s1.66-16.18,4.99-22.46c3.33-6.28,7.94-11.08,13.85-14.41,5.9-3.33,12.61-4.99,20.12-4.99ZM1001.89,471.11c-5.47,0-10.14,1.24-14.01,3.7-3.86,2.47-6.84,5.98-8.94,10.54-2.09,4.56-3.14,10.06-3.14,16.5s1.05,11.81,3.14,16.42c2.09,4.62,5.07,8.16,8.94,10.63,3.86,2.47,8.53,3.7,14.01,3.7s10.14-1.23,14.01-3.7c3.86-2.47,6.84-6.01,8.94-10.63,2.09-4.61,3.14-10.09,3.14-16.42s-1.05-11.94-3.14-16.5c-2.09-4.56-5.07-8.08-8.94-10.54-3.86-2.47-8.53-3.7-14.01-3.7Z"/>
</svg>