<?xml version="1.0" encoding="UTF-8"?>
<svg id="Layer_1" data-name="Layer 1" xmlns="http://www.w3.org/2000/svg" viewBox="0 0 901.44 439.42">
  <g>
    <g>
      <polygon points="83.53 91.42 83.53 197.65 96.41 197.65 96.41 149.84 144.37 149.84 144.37 137.77 96.41 137.77 96.41 103.49 157.89 103.49 157.89 91.42 83.53 91.42"/>
      <path d="M265.6,156.12h38.79l-19.48-52.31-19.31,52.31ZM334,197.65h-13.68l-11.27-29.45h-48.12l-11.27,29.45h-13.52l41.36-106.23h15.29l41.2,106.23Z"/>
      <path d="M374.44,156.12h38.79l-19.48-52.31-19.31,52.31ZM442.84,197.65h-13.68l-11.27-29.45h-48.12l-11.27,29.45h-13.52l41.36-106.23h15.29l41.2,106.23Z"/>
      <path d="M491.73,185.58c12.12,0,21.59-3.62,28.41-10.86,6.81-7.24,10.22-17.3,10.22-30.18s-3.41-22.94-10.22-30.18c-6.82-7.24-16.28-10.86-28.41-10.86h-22.69v82.09h22.69ZM490.44,91.42c16.63,0,29.69,4.59,39.19,13.76,9.5,9.17,14.24,22.29,14.24,39.35s-4.75,30.18-14.24,39.35c-9.5,9.17-22.56,13.76-39.19,13.76h-34.28v-106.23h34.28Z"/>
      <path d="M190.14,117v9.86h-24.16v10.28h24.66v-9.86h22.05c-.57,7.85-1.26,17.51-1.26,18.38v3.08l-29.29,5.77c-7.19,1.4-12.79,4.05-16.82,7.97-4.02,3.92-6.04,8.88-6.04,14.89,0,4.83,1.21,8.88,3.62,12.15,2.42,3.27,5.66,5.71,9.74,7.32,4.08,1.61,8.47,2.42,13.2,2.42,3.75,0,7.56-.62,11.43-1.85,3.86-1.23,7.35-3.16,10.46-5.79,1.5-1.26,3.85-4.34,3.85-4.34,0,0,.21-.02.58-.07l1.27,10.25h10.09l.13-80.46h-33.52ZM211.43,167.87c0,3.44-.64,6.41-1.93,8.93-1.29,2.52-3.06,4.62-5.31,6.28-2.25,1.67-4.8,2.9-7.65,3.7-2.84.8-5.82,1.21-8.93,1.21-4.83,0-8.56-1.04-11.19-3.14-2.63-2.09-3.94-4.8-3.94-8.13s1.29-6.12,3.86-8.05c2.57-1.93,6.49-3.43,11.75-4.51l23.34-4.78v8.48Z"/>
    </g>
    <g>
      <path d="M642.08,115.83h-21.09v39.66c0,10.37-3.3,26.9-18.56,26.9-13.53,0-13.69-13.38-13.69-23.29v-43.27h-21.07v51.13c0,18.26,8.33,31.8,27.53,31.8,11.01,0,20.14-5.04,26.58-12.91h.32v11.01h19.98v-81.04Z"/>
      <path d="M671.84,156.11c0-10.85,3.77-25.8,17.45-25.8s18.89,14.48,18.89,25.8-4.57,26.28-18.57,26.28-17.77-15.11-17.77-26.28M708.96,196.87h20.46l-.07-114.79h-21.09l.07,43.2h-.31c-6.3-7.7-13.69-11.32-24.23-11.32-24.86,0-33.98,19.82-33.98,42.16s9.13,42.65,33.98,42.65c9.91,0,18.57-3.15,24.85-11.03h.31v9.13Z"/>
      <path d="M739.2,229.9h21.07v-42.32h.32c7.4,8.97,14.79,11.18,23.76,11.18,25.33,0,34.45-20.46,34.45-42.65s-9.12-42.16-33.98-42.16c-12.43,0-20.45,5.51-25.17,13.37h-.31v-11.49h-20.14v114.07ZM779.31,130.31c13.7,0,17.46,14.95,17.46,25.8s-3.93,26.28-17.76,26.28-18.58-14.79-18.58-26.28,5.35-25.8,18.88-25.8"/>
    </g>
  </g>
  <g>
    <path d="M170.7,353.73h-13.69l-11.27-29.46h-48.14l-11.27,29.46h-13.52l41.38-106.26h15.29l41.22,106.26ZM102.28,312.19h38.8l-19.48-52.33-19.32,52.33Z"/>
    <path d="M181.87,353.73v-80.5h10.47l1.77,13.2c2.25-4.94,5.55-8.64,9.9-11.11,4.35-2.47,9.63-3.7,15.86-3.7,1.39,0,2.92.11,4.59.32,1.66.22,3.08.64,4.27,1.29l-2.25,11.75c-1.18-.43-2.47-.75-3.86-.97-1.4-.21-3.38-.32-5.96-.32-3.33,0-6.68.97-10.06,2.9-3.38,1.93-6.2,4.86-8.45,8.78-2.25,3.92-3.38,8.88-3.38,14.89v43.47h-12.88Z"/>
    <path d="M292.93,273.23v11.11h-58.28v-11.11h58.28ZM263.62,250.36v81.14c0,3.97,1.13,6.92,3.38,8.85,2.25,1.93,5.15,2.9,8.69,2.9,3.11,0,5.8-.54,8.05-1.61,2.25-1.07,4.29-2.52,6.12-4.35l4.51,10.79c-2.47,2.25-5.39,4.02-8.77,5.31s-7.27,1.93-11.67,1.93c-4.08,0-7.89-.72-11.43-2.17s-6.36-3.76-8.45-6.92c-2.09-3.17-3.2-7.33-3.3-12.48v-79.86l12.88-3.54Z"/>
    <path d="M337.74,355.34c-7.62,0-14.41-1.66-20.37-4.99-5.96-3.33-10.6-8.13-13.93-14.41-3.33-6.28-4.99-13.77-4.99-22.46s1.66-16.18,4.99-22.46c3.33-6.28,7.89-11.08,13.68-14.41,5.8-3.33,12.4-4.99,19.8-4.99s13.93,1.61,19.24,4.83c5.31,3.22,9.36,7.59,12.16,13.12,2.79,5.53,4.19,11.73,4.19,18.6,0,1.83-.06,3.49-.16,4.99-.11,1.5-.27,2.85-.48,4.03h-65.04v-11.43h59.41l-6.6,1.29c0-7.73-2.12-13.68-6.36-17.87-4.24-4.19-9.8-6.28-16.66-6.28-5.26,0-9.8,1.21-13.6,3.62-3.81,2.42-6.76,5.9-8.86,10.46-2.09,4.56-3.14,10.06-3.14,16.5s1.07,11.81,3.22,16.42c2.15,4.62,5.18,8.13,9.1,10.55,3.92,2.42,8.61,3.62,14.09,3.62,5.9,0,10.71-1.13,14.41-3.38,3.7-2.25,6.68-5.31,8.93-9.18l10.14,5.96c-2.04,3.65-4.64,6.82-7.81,9.5-3.17,2.68-6.87,4.75-11.11,6.2-4.24,1.45-8.99,2.17-14.25,2.17Z"/>
  </g>
</svg>